<?xml version="1.0" encoding="utf-8"?>
<!-- Svg Vector Icons : http://www.onlinewebfonts.com/icon -->
<!DOCTYPE svg PUBLIC "-//W3C//DTD SVG 1.1//EN" "http://www.w3.org/Graphics/SVG/1.1/DTD/svg11.dtd">
<svg version="1.1" xmlns="http://www.w3.org/2000/svg" xmlns:xlink="http://www.w3.org/1999/xlink" x="0px" y="0px" viewBox="0 0 256 256" enable-background="new 0 0 256 256" xml:space="preserve">
<metadata> Svg Vector Icons : http://www.onlinewebfonts.com/icon </metadata>
<g><g><g><path fill="#000000" d="M37.4,9.6c-3.7,1.4-6.2,3.5-15.7,13C11,33.5,10,35.2,10,42.2c0,7.9-1.2,6.5,38.9,46.7c33.3,33.4,35.6,35.8,35.6,37.7c0,1.9-2.3,4.3-35.6,37.7C8.8,204.4,10.1,202.9,10,210.9c0,4.2,0.2,5,1.9,8.2c1.2,2.1,3.8,5.3,6.5,7.9c3.9,3.8,4.8,4.4,6.6,4.4c2.8,0,4.4-1.6,4.4-4.4c0-1.9-0.6-2.7-4.6-6.8c-5.9-6-7.1-9.1-5-13c0.5-0.9,16.5-17.2,35.7-36.4c38.5-38.3,37.7-37.4,37.7-44.4c0-7,0.8-6-37.7-44.4C36.3,63,20.2,46.4,19.5,45.2c-1.3-2.6-1.4-4.1-0.3-6.1c1-1.9,18.7-19.4,20.5-20.4c1.9-0.9,5.5-0.8,7.1,0.3c0.8,0.5,19.3,18.7,41,40.5L127.4,99l40.1-40.1c44.5-44.5,41.6-42,47.3-39.9c2.1,0.8,4.7,3,11.5,9.7c4.9,4.8,9.2,9.6,9.7,10.6c1.3,2.9,1.1,5.6-0.8,8.1c-0.9,1.2-17.3,17.8-36.3,36.8c-27.5,27.4-34.9,35.1-36,37.4c-1.6,3.4-1.9,7.9-0.5,11.2c0.6,1.5,11.9,13.2,36.8,38.1c25.3,25.3,36.2,36.6,36.8,38.2c0.8,1.8,0.8,2.7,0.2,4.6c-0.5,2-2.2,4.1-10.3,12.1c-10.3,10.2-11.5,11.1-15.6,10c-1.1-0.2-14.7-13.4-41.9-40.7L128.3,155l-42.1,42.1l-42.1,42.1l-2.3-1.6c-2.6-1.8-4.5-1.6-6.4,0.6c-3.6,3.9,1,8.9,8.2,8.9c1.8,0,4.1-0.4,5.1-0.9c1-0.5,19.3-18.3,40.5-39.6L128,168l36.9,36.9c41.5,41.4,40.1,40.2,48,40.2c6.3,0.1,8.1-1.2,20.4-13.7c9.3-9.4,10.6-11,11.5-13.7c1.3-4.1,1-9.8-0.8-13.4c-0.9-1.9-11.8-13-36.9-38.3c-19.7-19.7-35.9-36.4-36.2-37.3c-0.4-1.2-0.4-2,0.1-2.9c0.3-0.7,16.8-17.4,36.4-37.1c40-40.1,38.6-38.5,38.6-46.3c-0.1-6.7-1.5-8.9-12.6-20.1c-7.9-7.9-10-9.6-13.6-11.4c-3.7-1.8-4.9-2.1-8.1-2.1c-7.5,0-6.1-1.2-47.3,40.1L127.2,86L90.3,49.1C60.6,19.4,52.9,12,50.4,10.7C46.7,8.9,40.7,8.4,37.4,9.6z"/></g></g></g>
</svg>