<?xml version="1.0" encoding="utf-8"?>
<!-- Svg Vector Icons : http://www.onlinewebfonts.com/icon -->
<!DOCTYPE svg PUBLIC "-//W3C//DTD SVG 1.1//EN" "http://www.w3.org/Graphics/SVG/1.1/DTD/svg11.dtd">
<svg version="1.1" xmlns="http://www.w3.org/2000/svg" xmlns:xlink="http://www.w3.org/1999/xlink" x="0px" y="0px" viewBox="0 0 256 256" enable-background="new 0 0 256 256" xml:space="preserve">
<metadata> Svg Vector Icons : http://www.onlinewebfonts.com/icon </metadata>
<g><g><g><path fill="#fff" d="M111.2,7.8c-1.3,1.3-1.6,2.8-0.7,4.1c1,1.5,1.9,1.6,10.6,2c11.1,0.5,24.6,3.2,35.4,7.1c7.5,2.8,20.4,9.3,26.7,13.5c28.2,18.8,47.1,47.2,53.8,80.5c1.4,7.2,2.3,15.4,2.3,21.5c0,3.2,0.2,4.3,0.9,5.1c1.4,1.6,2.8,1.8,4.4,0.5l1.4-1.1l-0.3-7.3c-1.5-32.9-15.2-63.8-38.9-87.5c-23.7-23.7-54.6-37.5-87.2-38.9C113,6.9,111.9,7,111.2,7.8z"/><path fill="#fff" d="M113.1,47.6c-2.6,2.6-0.9,5.3,3.3,5.3c1.4,0,4.7,0.3,7.5,0.6c42.9,4.7,74.8,37.6,77.7,80.4c0.2,3.5,0.6,6.9,0.8,7.4c0.9,2.3,4.9,1.9,5.6-0.6c0.5-2.2-0.3-12.8-1.4-18.3c-8.4-41.4-42.2-71.9-84-75.5C114.5,46.2,114.4,46.2,113.1,47.6z"/><path fill="#fff" d="M50.6,64.5C43,66,35.3,71.2,26.4,81c-7.3,7.9-10.8,12.6-13.1,17.4C8,109.6,9,119.2,16.9,131.2c1.8,2.7,14.6,15.8,53.5,54.9c30.5,30.5,52.8,52.6,55.2,54.4c4.5,3.5,10.6,6.5,15.1,7.7c3.5,0.9,9.4,1,12.8,0.2c4.1-1,11.3-4.8,16.3-8.6c5.9-4.5,16.4-14.7,19.7-19c8.1-10.7,9.2-22,3.1-31.7c-1.6-2.5-20.4-21.6-23.2-23.6c-1.8-1.2-3.9-0.5-9.8,3.3c-10.4,6.5-23,17.2-30.4,25.6L126,198l-33.3-33.7c-18.3-18.5-33.3-33.8-33.3-34c0-0.1,1.8-1.6,3.9-3.1c11.7-8.8,23-20.3,28.1-28.7c3-5,3.1-4.8-7.6-16c-5.2-5.3-10.6-10.8-12.1-12.1C65.5,65.2,57.8,63,50.6,64.5z M62.9,72.6c2.8,1.3,4.7,3,13.3,11.4c5.4,5.4,9.9,10.1,9.9,10.5c0,1.2-5.3,8.1-10.2,13.1c-5.8,6.1-13.1,12.2-20,16.9c-4.6,3.1-4.8,3.4-4.8,5.1s1.9,3.7,36.5,38.8c20.1,20.4,37,37.2,37.6,37.4c1.8,0.8,3.4-0.1,5.2-2.8c2.5-3.7,13.9-15.1,20.2-20.1c4.8-3.8,15.4-11.1,16.1-11.1c0.2,0,4.6,4.3,9.9,9.5c8,7.8,9.9,10,11.3,12.7c3.3,6.5,2.5,14-2.4,21.1c-3.1,4.5-16.7,17.5-22.8,21.7c-2.6,1.8-6.1,3.7-8,4.3c-7.5,2.7-15.9,0.9-24.5-5.2c-4-2.8-102.7-101.5-106.2-106.2c-9.8-13-9.9-22.9-0.6-35.3c4.3-5.6,14.3-16,18-18.6C49.2,70.3,55.9,69.3,62.9,72.6z"/><path fill="#fff" d="M113.1,86.9c-1.5,1.5-1.6,2.9-0.3,4.2c0.7,0.7,2.1,1,5.6,1.3c10.3,0.8,19.9,4.5,27.5,10.5c10.7,8.6,16.8,20.6,18.1,35.5c0.5,5.7,2.2,7.4,5.2,5.3c1.2-0.9,1.2-1,0.9-6.5c-1.3-25.9-22.9-48.2-49.4-51.2C114.3,85.5,114.5,85.5,113.1,86.9z"/></g></g></g>
</svg>