<?xml version="1.0" encoding="utf-8"?>
<!-- Svg Vector Icons : http://www.onlinewebfonts.com/icon -->
<!DOCTYPE svg PUBLIC "-//W3C//DTD SVG 1.1//EN" "http://www.w3.org/Graphics/SVG/1.1/DTD/svg11.dtd">
<svg version="1.1" xmlns="http://www.w3.org/2000/svg" xmlns:xlink="http://www.w3.org/1999/xlink" x="0px" y="0px" viewBox="0 0 256 256" enable-background="new 0 0 256 256" xml:space="preserve">
<metadata> Svg Vector Icons : http://www.onlinewebfonts.com/icon </metadata>
<g><g><g><path fill="#fff" d="M241.6,20.9c-3.9-5-9.8-7.9-16.4-7.9c-4.2,0-8.6,1.2-13,3.5L24.1,115.2c-13.4,7-14.3,17.6-14.1,21.8c0.2,4.2,2.3,14.6,16.3,20.2l24,9.5c4.6,1.8,9.7,2.7,15.1,2.7c0.9,0,1.7-0.1,2.6-0.2c-0.3,0.4-0.7,0.7-1,1.2c-4.5,6.7-4.7,15.8-0.7,25.6c0.1,0.2,0.1,0.3,0.2,0.5c7.1,15.7,15,33.5,16,36c2.4,6.1,8.4,10.4,15,10.4c10.1,0,13.1-4.9,29.8-31.9c1.3-2,4.2-6.6,4.6-12.4c2,0.8,3.8,1.5,5.3,2.1l26.7,10.8c5.3,2.2,10,4.1,12.5,5.1c0.8,0.5,1.6,0.9,2.4,1.2c1.9,0.7,3.9,1.1,5.9,1.1c12.1,0,15-10.5,16.6-16.1c0.8-2.8,1.8-6.6,3-10.9l40.6-149.3C247.9,31.4,244.1,24.2,241.6,20.9z M113.9,202.5c0,0-15.1,24.5-16.4,24.5c0,0,0,0-0.1,0c-1.5-4-16.4-37-16.4-37c-2.7-6.6-2.2-12.3,2.5-12.3c1,0,2.3,0.3,3.7,0.9l11.6,6c1.9,1.3,4,2.5,6.4,3.4l0.6,0.2l1.1,0.6C115.8,193.5,118.6,195.2,113.9,202.5z M229.5,38.5l-40.6,149.3c-2.3,8.4-4.2,15.3-4.2,15.3c0,0-0.1-0.2-0.1-0.2c0,0-6.6-2.8-14.7-6.1L143.2,186c-8.1-3.3-21.4-8.6-29.5-11.7l-1.3-0.5l-5-2.6c-4.9-3.8-5.4-10-0.4-15.3l82.5-88.3c3.3-3.5,4.6-5.3,3.9-5.3c-0.6,0-2.4,1.2-5.5,3.6L83.5,148.1c-4.6,3.5-11.5,5.5-18,5.5c-3.3,0-6.6-0.5-9.3-1.6l-24-9.5c-8.1-3.2-8.4-9.2-0.7-13.2l188.1-98.7c2.2-1.1,4.1-1.7,5.7-1.7C229.3,28.9,231.2,32.5,229.5,38.5z"/></g><g></g><g></g><g></g><g></g><g></g><g></g><g></g><g></g><g></g><g></g><g></g><g></g><g></g><g></g><g></g></g></g>
</svg>