<?xml version="1.0" encoding="utf-8"?>
<!-- Svg Vector Icons : http://www.onlinewebfonts.com/icon -->
<!DOCTYPE svg PUBLIC "-//W3C//DTD SVG 1.1//EN" "http://www.w3.org/Graphics/SVG/1.1/DTD/svg11.dtd">
<svg version="1.1" xmlns="http://www.w3.org/2000/svg" xmlns:xlink="http://www.w3.org/1999/xlink" x="0px" y="0px" viewBox="0 0 256 256" enable-background="new 0 0 256 256" xml:space="preserve">
<metadata> Svg Vector Icons : http://www.onlinewebfonts.com/icon </metadata>
<g><g><g><path fill="#E41E26" d="M230.5,42.8c-2.6,0.5-6.4,4.3-73,70.9l-70.4,70.3l-28.3-28.3c-29.9-29.9-31.5-31.3-36.6-31.3c-4.9,0.1-10.1,3.9-11.7,8.6c-0.8,2.6-0.5,6.7,0.8,9.1c0.5,0.9,16.4,17.1,35.4,36c33.8,33.7,34.5,34.3,37.5,34.9c3.1,0.7,6,0.3,8.6-1.1c0.8-0.4,35-34.2,76-75.1c78-77.9,77.3-77.1,77.3-82.1C246,46.8,238.6,41.1,230.5,42.8z"/></g></g></g>
</svg>